<svg width="473" height="940" viewBox="0 0 473 940" fill="none" xmlns="http://www.w3.org/2000/svg">
<path d="M217.76 202.805L287.197 281.557L207.304 352L137.867 273.248L217.76 202.805Z" fill="#051367" fill-opacity="0.8"/>
<rect x="214.594" y="236.026" width="57.8216" height="59.3432" transform="rotate(48.5968 214.594 236.026)" fill="#F9DD33" fill-opacity="0.8"/>
<rect x="214.925" y="247.906" width="39.5622" height="44.127" transform="rotate(48.5968 214.925 247.906)" fill="#FBB546" fill-opacity="0.8"/>
<rect x="149.33" y="125.195" width="104.992" height="106.514" transform="rotate(48.5968 149.33 125.195)" fill="white"/>
<path d="M176.991 191.079L179.851 171.314L154.674 194.528L150.17 214.728L170.708 213.863L196.958 190.717L176.991 191.079Z" fill="#051367" fill-opacity="0.8"/>
<path d="M156.865 168.252L159.724 148.488L134.548 171.701L130.044 191.901L150.581 191.036L176.832 167.89L156.865 168.252Z" fill="#051367" fill-opacity="0.8"/>
<path d="M121.846 219.416L118.986 239.18L144.163 215.967L148.667 195.767L128.129 196.632L101.879 219.778L121.846 219.416Z" fill="#F9DD33" fill-opacity="0.8"/>
<rect x="79.8931" y="46.4431" width="104.992" height="106.514" transform="rotate(48.5968 79.8931 46.4431)" fill="#051367" fill-opacity="0.8"/>
<rect x="76.7268" y="79.6644" width="57.8216" height="59.3432" transform="rotate(48.5968 76.7268 79.6644)" fill="#F9DD33" fill-opacity="0.8"/>
<rect x="77.0581" y="91.5439" width="39.5622" height="44.127" transform="rotate(48.5968 77.0581 91.5439)" fill="#FBB546" fill-opacity="0.8"/>
<path d="M297.653 132.362L367.09 211.114L287.197 281.557L217.76 202.805L297.653 132.362Z" fill="#051367" fill-opacity="0.8"/>
<path d="M217.19 203.308L242.299 181.169L316.717 185.044L311.243 259.362L286.134 281.502L217.19 203.308Z" fill="#FBB546" fill-opacity="0.8"/>
<path d="M226.891 194.755L303.592 196.617L298.118 270.935L290.129 277.979L295.603 203.661L219.472 201.296L226.891 194.755Z" fill="#051367" fill-opacity="0.8"/>
<path d="M294.392 183.882L297.653 132.362L242.87 180.666L294.392 183.882Z" fill="white"/>
<path d="M314.997 208.401L311.736 259.921L366.519 211.617L314.997 208.401Z" fill="white"/>
<path d="M275.551 222.334L272.51 241.892L297.697 218.691L302.373 198.685L282.017 199.756L255.766 222.902L275.551 222.334Z" fill="#F9DD33" fill-opacity="0.8"/>
<rect x="218.196" y="204.45" width="104.992" height="106.514" transform="rotate(-131.403 218.196 204.45)" fill="#F9DD33" fill-opacity="0.8"/>
<path d="M298.66 133.503L268.092 160.455L184.743 163.958L198.655 81.7038L229.223 54.7516L298.66 133.503Z" fill="#051367" fill-opacity="0.8"/>
<path d="M224.406 105.657L247.963 108.216L247.048 131.337L242.182 131.57L241.912 135.866L237.046 136.099L236.776 140.394L209.728 141.928L214.134 114.714L218.932 115.555L219.27 110.186L224.068 111.026L224.406 105.657Z" fill="white"/>
<path d="M159.786 -24L229.223 54.7517L149.33 125.195L79.8929 46.4432L159.786 -24Z" fill="#051367" fill-opacity="0.8"/>
<path d="M79.3221 46.9463L104.431 24.807L178.85 28.682L173.376 103L148.266 125.139L79.3221 46.9463Z" fill="#FBB546" fill-opacity="0.8"/>
<path d="M89.0235 38.3924L165.725 40.2548L160.251 114.573L152.261 121.617L157.736 47.2991L81.6049 44.9336L89.0235 38.3924Z" fill="#051367" fill-opacity="0.8"/>
<path d="M156.525 27.5195L159.786 -24L105.002 24.3039L156.525 27.5195Z" fill="white"/>
<path d="M177.13 52.0392L173.868 103.559L228.652 55.2548L177.13 52.0392Z" fill="white"/>
<path d="M322.76 797.805L392.197 876.557L312.304 947L242.867 868.248L322.76 797.805Z" fill="#051367" fill-opacity="0.8"/>
<rect x="319.594" y="831.026" width="57.8216" height="59.3432" transform="rotate(48.5968 319.594 831.026)" fill="#F9DD33" fill-opacity="0.8"/>
<rect x="319.925" y="842.906" width="39.5622" height="44.127" transform="rotate(48.5968 319.925 842.906)" fill="#FBB546" fill-opacity="0.8"/>
<rect x="254.33" y="720.195" width="104.992" height="106.514" transform="rotate(48.5968 254.33 720.195)" fill="white"/>
<path d="M281.991 786.079L284.851 766.314L259.674 789.527L255.17 809.728L275.708 808.863L301.958 785.717L281.991 786.079Z" fill="#051367" fill-opacity="0.8"/>
<path d="M261.865 763.252L264.724 743.488L239.548 766.701L235.044 786.901L255.581 786.036L281.832 762.89L261.865 763.252Z" fill="#051367" fill-opacity="0.8"/>
<path d="M226.846 814.416L223.986 834.18L249.163 810.967L253.667 790.767L233.129 791.632L206.879 814.778L226.846 814.416Z" fill="#F9DD33" fill-opacity="0.8"/>
<rect x="184.893" y="641.443" width="104.992" height="106.514" transform="rotate(48.5968 184.893 641.443)" fill="#051367" fill-opacity="0.8"/>
<rect x="181.727" y="674.664" width="57.8216" height="59.3432" transform="rotate(48.5968 181.727 674.664)" fill="#F9DD33" fill-opacity="0.8"/>
<rect x="182.058" y="686.544" width="39.5622" height="44.127" transform="rotate(48.5968 182.058 686.544)" fill="#FBB546" fill-opacity="0.8"/>
<path d="M402.653 727.362L472.09 806.114L392.197 876.557L322.76 797.805L402.653 727.362Z" fill="#051367" fill-opacity="0.8"/>
<path d="M322.19 798.308L347.299 776.169L421.717 780.044L416.243 854.362L391.134 876.501L322.19 798.308Z" fill="#FBB546" fill-opacity="0.8"/>
<path d="M331.891 789.755L408.592 791.617L403.118 865.935L395.129 872.979L400.603 798.661L324.472 796.296L331.891 789.755Z" fill="#051367" fill-opacity="0.8"/>
<path d="M399.392 778.882L402.653 727.362L347.87 775.666L399.392 778.882Z" fill="white"/>
<path d="M419.997 803.401L416.736 854.921L471.519 806.617L419.997 803.401Z" fill="white"/>
<path d="M380.551 817.334L377.51 836.892L402.697 813.691L407.373 793.685L387.017 794.756L360.766 817.902L380.551 817.334Z" fill="#F9DD33" fill-opacity="0.8"/>
<rect x="323.196" y="799.45" width="104.992" height="106.514" transform="rotate(-131.403 323.196 799.45)" fill="#F9DD33" fill-opacity="0.8"/>
<path d="M403.66 728.503L373.092 755.455L289.743 758.958L303.655 676.704L334.223 649.752L403.66 728.503Z" fill="#051367" fill-opacity="0.8"/>
<path d="M329.406 700.657L352.963 703.216L352.048 726.337L347.182 726.57L346.912 730.866L342.046 731.099L341.776 735.394L314.728 736.928L319.134 709.714L323.932 710.555L324.27 705.186L329.068 706.026L329.406 700.657Z" fill="white"/>
<path d="M264.786 571L334.223 649.752L254.33 720.195L184.893 641.443L264.786 571Z" fill="#051367" fill-opacity="0.8"/>
<path d="M184.322 641.946L209.431 619.807L283.85 623.682L278.376 698L253.266 720.139L184.322 641.946Z" fill="#FBB546" fill-opacity="0.8"/>
<path d="M194.024 633.393L270.725 635.255L265.251 709.573L257.261 716.617L262.736 642.299L186.605 639.934L194.024 633.393Z" fill="#051367" fill-opacity="0.8"/>
<path d="M261.525 622.52L264.786 571L210.002 619.304L261.525 622.52Z" fill="white"/>
<path d="M282.13 647.039L278.868 698.559L333.652 650.255L282.13 647.039Z" fill="white"/>
<path d="M174.072 513.631L109.109 570.91L51.0001 505.006L115.963 447.727L174.072 513.631Z" fill="#051367" fill-opacity="0.8"/>
<rect x="146.667" y="511.02" width="47.6973" height="48.9525" transform="rotate(138.597 146.667 511.02)" fill="#F9DD33" fill-opacity="0.8"/>
<rect x="136.868" y="511.293" width="32.635" height="36.4006" transform="rotate(138.597 136.868 511.293)" fill="#FBB546" fill-opacity="0.8"/>
<rect x="238.093" y="457.183" width="86.6082" height="87.8634" transform="rotate(138.597 238.093 457.183)" fill="white"/>
<path d="M183.745 480.001L200.049 482.36L180.9 461.592L164.237 457.876L164.95 474.818L184.043 496.472L183.745 480.001Z" fill="#051367" fill-opacity="0.8"/>
<path d="M202.574 463.399L218.878 465.757L199.73 444.989L183.066 441.274L183.78 458.215L202.873 479.87L202.574 463.399Z" fill="#051367" fill-opacity="0.8"/>
<path d="M160.37 434.511L144.066 432.152L163.214 452.921L179.878 456.636L179.164 439.694L160.071 418.04L160.37 434.511Z" fill="#F9DD33" fill-opacity="0.8"/>
<rect x="303.055" y="399.904" width="86.6082" height="87.8634" transform="rotate(138.597 303.055 399.904)" fill="#051367" fill-opacity="0.8"/>
<rect x="275.651" y="397.292" width="47.6973" height="48.9525" transform="rotate(138.597 275.651 397.292)" fill="#F9DD33" fill-opacity="0.8"/>
<rect x="265.851" y="397.565" width="32.635" height="36.4006" transform="rotate(138.597 265.851 397.565)" fill="#FBB546" fill-opacity="0.8"/>
<path d="M232.18 579.535L167.218 636.814L109.109 570.91L174.072 513.631L232.18 579.535Z" fill="#051367" fill-opacity="0.8"/>
<path d="M173.656 513.161L191.919 533.873L188.723 595.262L127.417 590.746L109.155 570.033L173.656 513.161Z" fill="#FBB546" fill-opacity="0.8"/>
<path d="M180.713 521.163L179.176 584.435L117.871 579.919L112.06 573.328L173.365 577.844L175.317 515.044L180.713 521.163Z" fill="#051367" fill-opacity="0.8"/>
<path d="M189.682 576.845L232.18 579.535L192.334 534.344L189.682 576.845Z" fill="white"/>
<path d="M169.455 593.842L126.957 591.152L166.803 636.343L169.455 593.842Z" fill="white"/>
<path d="M157.962 561.304L141.829 558.795L160.967 579.572L177.47 583.429L176.587 566.637L157.494 544.983L157.962 561.304Z" fill="#F9DD33" fill-opacity="0.8"/>
<rect x="172.715" y="513.991" width="86.6083" height="87.8634" transform="rotate(-41.4032 172.715 513.991)" fill="#F9DD33" fill-opacity="0.8"/>
<path d="M231.239 580.366L209.006 555.15L206.117 486.395L273.969 497.871L296.202 523.087L231.239 580.366Z" fill="#051367" fill-opacity="0.8"/>
<path d="M254.209 519.113L252.098 538.545L233.026 537.791L232.833 533.777L229.29 533.554L229.098 529.54L225.555 529.318L224.289 507.006L246.738 510.64L246.045 514.598L250.474 514.877L249.78 518.835L254.209 519.113Z" fill="white"/>
<path d="M361.164 465.808L296.201 523.087L238.093 457.183L303.055 399.904L361.164 465.808Z" fill="#051367" fill-opacity="0.8"/>
<path d="M302.64 399.433L320.903 420.146L317.706 481.534L256.401 477.019L238.138 456.306L302.64 399.433Z" fill="#FBB546" fill-opacity="0.8"/>
<path d="M309.696 407.436L308.16 470.707L246.855 466.191L241.044 459.601L302.349 464.117L304.3 401.316L309.696 407.436Z" fill="#051367" fill-opacity="0.8"/>
<path d="M318.665 463.118L361.164 465.808L321.318 420.617L318.665 463.118Z" fill="white"/>
<path d="M298.439 480.115L255.94 477.425L295.786 522.616L298.439 480.115Z" fill="white"/>
<rect x="187.093" y="973.183" width="86.6082" height="87.8634" transform="rotate(138.597 187.093 973.183)" fill="white"/>
<path d="M109.37 950.511L93.0657 948.152L112.214 968.921L128.878 972.636L128.164 955.694L109.071 934.04L109.37 950.511Z" fill="#F9DD33" fill-opacity="0.8"/>
<rect x="252.055" y="915.904" width="86.6082" height="87.8634" transform="rotate(138.597 252.055 915.904)" fill="#051367" fill-opacity="0.8"/>
<rect x="224.651" y="913.292" width="47.6973" height="48.9525" transform="rotate(138.597 224.651 913.292)" fill="#F9DD33" fill-opacity="0.8"/>
<rect x="214.851" y="913.565" width="32.635" height="36.4006" transform="rotate(138.597 214.851 913.565)" fill="#FBB546" fill-opacity="0.8"/>
<path d="M310.164 981.808L245.201 1039.09L187.093 973.183L252.055 915.904L310.164 981.808Z" fill="#051367" fill-opacity="0.8"/>
<path d="M251.64 915.433L269.903 936.146L266.706 997.534L205.401 993.019L187.138 972.306L251.64 915.433Z" fill="#FBB546" fill-opacity="0.8"/>
<path d="M258.696 923.436L257.16 986.707L195.855 982.191L190.044 975.601L251.349 980.117L253.3 917.316L258.696 923.436Z" fill="#051367" fill-opacity="0.8"/>
<path d="M267.665 979.118L310.164 981.808L270.318 936.617L267.665 979.118Z" fill="white"/>
</svg>
